<svg width="177" height="28" viewBox="0 0 177 28" fill="none" xmlns="http://www.w3.org/2000/svg">
<g clip-path="url(#clip0_152:154)">
<path fill-rule="evenodd" clip-rule="evenodd" d="M69.0185 19.2371L69.012 19.2412C69.012 19.2412 70.8358 20.6158 71.6088 22.2158C72.3819 23.8158 71.8842 25.3188 70.5073 26.6085C69.1303 27.8982 66.0793 27.6825 64.6613 27.2412C63.2433 26.8 57.6871 22.5552 57.6871 22.5552C57.6871 22.5552 56.0831 24.4024 55.5347 24.8873C55.1085 25.2996 54.5839 25.5953 54.0112 25.746C53.4386 25.8967 52.8369 25.8973 52.2639 25.7479C50.6937 25.3334 49.6525 24.2424 49.4858 21.4061C49.3167 18.5261 49.2539 15.0473 50.2419 10.9261C51.0778 7.44729 52.2711 4.59638 53.6094 2.62305C55.1072 0.42426 57.0325 -0.092101 58.924 0.0194141C59.4634 0.0366306 59.9872 0.204604 60.4366 0.504411C60.886 0.804217 61.2431 1.22395 61.4677 1.71638C61.789 2.47517 61.7093 3.8982 61.7093 3.8982C61.7093 3.8982 66.2605 2.33456 69.1786 4.22547C72.0968 6.11638 72.7297 8.99152 72.8481 10.8558C73.2136 16.5827 69.5164 18.922 69.0185 19.2371ZM62.736 15.1806C63.8399 14.9212 64.8086 14.6206 65.1203 13.343C65.4343 12.0679 64.9415 11.0497 64.0332 10.7564C62.5016 10.2594 59.7743 11.28 59.7743 11.28C59.7743 11.28 58.8129 14.6934 58.8419 14.8703C58.8708 15.0473 61.2092 15.537 62.736 15.1806ZM100.119 10.6642C102.576 3.85698 109.057 -0.0266709 114.613 1.98787C120.16 4.00484 122.665 11.1564 120.208 17.9661C117.751 24.7758 111.26 28.6594 105.714 26.6424C100.167 24.6254 97.6623 17.4715 100.119 10.6642ZM108.463 19.023C110.582 19.7939 113.06 18.3103 114 15.7115C114.939 13.1103 113.98 10.3757 111.862 9.60725C109.743 8.83877 107.267 10.32 106.327 12.9212C105.388 15.5224 106.344 18.2521 108.463 19.023ZM151.735 19.2824C152.057 17.4182 152.902 14.0024 155.673 9.73333C158.023 6.11878 162.794 1.60969 167.993 1.4909C173.192 1.37211 175.813 5.98062 176.079 10.5988C176.344 15.217 175.649 24.9018 171.641 27.2921C171.641 27.2921 168.131 29.537 165.814 26.0921C165.387 25.2716 165.147 24.3655 165.114 23.4402C165.08 22.5148 165.254 21.5937 165.621 20.7443C165.621 20.7443 168.368 13.9709 167.271 12.5261C166.063 10.9358 164.15 12.2109 162.732 14.7709C162.295 15.5598 161.738 16.8853 161.142 18.3028C160.225 20.4832 159.217 22.8813 158.415 23.8788C157.091 25.5249 154.876 26.7491 152.975 25.5443C151.122 24.3564 151.417 21.1491 151.735 19.2824ZM130.273 13.5698L130.272 13.5775L130.272 13.578L130.272 13.5784L130.272 13.5788C129.909 15.9721 129.645 17.7116 130.016 17.3164C130.046 17.2842 130.082 17.2481 130.122 17.2071L130.122 17.207C130.662 16.6598 132.073 15.2294 133.156 10.4558C133.32 9.73328 133.46 9.05453 133.59 8.4216C134.387 4.55851 134.831 2.4027 138.229 2.43395C141.98 2.46843 141.332 9.3892 141.169 11.1351C141.16 11.2301 141.153 11.3097 141.147 11.3721C140.959 13.5927 141.111 17.5443 141.664 16.6327C142.217 15.7212 143.355 12.1721 143.715 8.67637C144.075 5.18061 144.87 1.69698 148.305 1.64607C151.726 1.59537 151.553 7.8705 151.447 11.7365L151.445 11.7843C151.339 15.6461 149.349 21.2218 149.349 21.2218C148.382 23.4206 144.865 27.6097 140.879 27.3697C136.893 27.1297 134.615 23.5321 134.615 23.5321C134.615 23.5321 131.151 26.9479 126.996 26.4679C122.841 25.9879 122.37 21.3261 122.406 19.697C122.443 18.0679 122.6 13.2873 123.455 9.34546C123.976 6.94061 124.875 3.36002 127.803 3.23396C131.822 3.0664 131.163 7.54325 130.536 11.8115C130.51 11.9896 130.484 12.1673 130.458 12.3442C130.395 12.766 130.333 13.1767 130.273 13.5698ZM73.1911 19.2824C73.5124 17.4182 74.3579 14.0024 77.1312 9.73333C79.4792 6.11878 84.2502 1.60969 89.4512 1.4909C94.6523 1.37211 97.2709 5.98062 97.5366 10.5988C97.8023 15.217 97.1066 24.9018 93.099 27.2921C93.099 27.2921 89.5889 29.537 87.2723 26.0921C86.8447 25.2716 86.6055 24.3655 86.572 23.4402C86.5386 22.5148 86.7118 21.5937 87.079 20.7443C87.079 20.7443 89.8257 13.9709 88.729 12.5261C87.5211 10.9358 85.6079 12.2109 84.1898 14.7709C83.7534 15.5592 83.1971 16.8831 82.6021 18.2992L82.6021 18.2993L82.6019 18.2997L82.6019 18.2998C81.6854 20.481 80.6771 22.8808 79.873 23.8788C78.5468 25.5249 76.334 26.7491 74.4328 25.5443C72.5776 24.3564 72.8723 21.1491 73.1911 19.2824ZM23.4277 19.2824C23.749 17.4182 24.5945 14.0024 27.3677 9.73333C29.7158 6.11878 34.4868 1.60969 39.6878 1.4909C44.8888 1.37211 47.5074 5.98062 47.7732 10.5988C48.0389 15.217 47.3432 24.9018 43.3355 27.2921C43.3355 27.2921 39.8255 29.537 37.5088 26.0921C37.0813 25.2716 36.842 24.3655 36.8086 23.4402C36.7751 22.5148 36.9484 21.5937 37.3156 20.7443C37.3156 20.7443 40.0622 13.9709 38.9655 12.5261C37.7577 10.9358 35.8444 12.2109 34.4264 14.7709C33.9899 15.5592 33.4337 16.8831 32.8386 18.2992C31.9221 20.4806 30.9137 22.8807 30.1095 23.8788C28.7833 25.5249 26.5705 26.7491 24.6694 25.5443C22.8141 24.3564 23.1088 21.1491 23.4277 19.2824ZM20.4539 19.7479C23.2271 15.4788 24.0726 12.063 24.3915 10.1988C24.7128 8.33211 25.0075 5.12485 23.1522 3.93697C21.2535 2.73212 19.0359 3.95637 17.7121 5.60243C16.9086 6.60152 15.8986 9.00546 14.9814 11.1886C14.3875 12.6022 13.8325 13.9233 13.3976 14.7103C11.9796 17.2703 10.0664 18.5454 8.85851 16.9551C7.76178 15.5103 10.506 8.73695 10.506 8.73695C10.8739 7.88777 11.0478 6.96671 11.0147 6.04132C10.9817 5.11593 10.7427 4.20969 10.3152 3.38909C7.99611 -0.0557565 4.48609 2.18907 4.48609 2.18907C0.480853 4.57938 -0.21245 14.2642 0.0508613 18.8824C0.314173 23.5006 2.9352 28.1067 8.1338 27.9903C13.3324 27.8739 18.1058 23.3624 20.4539 19.7479Z" fill="white"/>
</g>
<defs>
<clipPath id="clip0_152:154">
<rect width="176.129" height="28" fill="white"/>
</clipPath>
</defs>
</svg>
